<?xml version="1.0" encoding="utf-8"?>
<!-- Generator: Adobe Illustrator 23.1.1, SVG Export Plug-In . SVG Version: 6.00 Build 0)  -->
<svg version="1.1" id="Ebene_1" xmlns="http://www.w3.org/2000/svg" xmlns:xlink="http://www.w3.org/1999/xlink" x="0px" y="0px"
	 viewBox="0 0 142 32" style="enable-background:new 0 0 142 32;" xml:space="preserve">
<style type="text/css">
	.st0{fill:#3C4646;}
	.st1{fill:#BF0418;}
	.st2{fill:#E43417;}
	.st3{fill:#FFFFFF;}
</style>
<path class="st0" d="M58.4,15.1L54.8,14c-0.9-0.3-1-0.4-1-0.8c0-0.4,0-1.6,2.1-1.6c1.3,0,2.3,0.7,2.6,1c0.3,0.3,0.8,0.5,1.2,0.5
	c0.5,0,0.9-0.2,1.2-0.5c0.7-0.7,0.7-1.7,0-2.4c-1.1-1.2-3-2-4.9-2c-2.3,0-5.7,1.3-5.7,4.9c0,3.2,2.3,3.9,3.3,4.2l4,1.3
	c0.9,0.3,1,0.8,1,1.2c0,0.6,0,1.8-2.7,1.8c-1.4,0-2.8-1-2.9-1.1c-0.7-0.6-1.8-0.6-2.4,0.1c-0.7,0.7-0.7,1.7,0,2.4
	c0.7,0.8,2.8,2.1,5.3,2.1c5.7,0,6.3-3.7,6.3-5.2C62.3,17.4,61,15.9,58.4,15.1z"/>
<path class="st0" d="M79.4,8.1c-1.5,0-2.8,0.6-3.9,1.9c-1-1.2-2.5-1.9-4.6-1.9c-1.3,0-2.3,0.4-3.1,1c-0.3-0.5-0.9-0.8-1.5-0.8
	c-1,0-1.7,0.8-1.7,1.7v13c0,1,0.8,1.7,1.7,1.7c1,0,1.7-0.8,1.7-1.7v-8.2c0-1.6,0.9-3.2,2.8-3.2c1.7,0,2.5,0.5,2.5,3.2V23
	c0,1,0.8,1.7,1.7,1.7s1.7-0.8,1.7-1.7v-8.4c0-0.9,0.2-3.1,2.4-3.1c1.7,0,2.5,0.5,2.5,3.2V23c0,1,0.8,1.7,1.7,1.7
	c1,0,1.8-0.8,1.8-1.7v-7.9C85.4,10.2,83.6,8.1,79.4,8.1z"/>
<path class="st0" d="M101.9,21.8c-0.2-0.3-0.8-0.9-0.8-2.2V10c0-1-0.8-1.7-1.7-1.7c-0.7,0-1.2,0.4-1.5,0.9c-1-0.7-2.1-1-3.2-1
	c-3.9,0-6.6,2.8-6.6,7v2.6c0,4.2,2.6,7.1,6.5,7.1c1.5,0,3-0.6,4.1-1.6c0.2,0.4,0.5,0.7,0.8,1c0.3,0.3,0.8,0.5,1.2,0.5
	c0.5,0,0.9-0.2,1.2-0.5c0.3-0.3,0.5-0.7,0.5-1.2c0-0.4-0.1-0.8-0.4-1.1C102,21.9,102,21.8,101.9,21.8z M94.5,21.4
	c-1.9,0-3-1.2-3-3.2v-3.4c0-1.9,1.1-3.1,3.1-3.1c1.8,0,3,1.3,3,3.3v3.2C97.6,20.2,96.4,21.4,94.5,21.4z"/>
<path class="st0" d="M111.2,8.1c-1.3,0-2.3,0.3-3.2,1c-0.3-0.5-0.8-0.8-1.5-0.8c-1,0-1.7,0.8-1.7,1.7v17.8c0,1,0.8,1.7,1.7,1.7
	c1,0,1.7-0.8,1.7-1.7v-3.6c0.9,0.4,1.9,0.7,3,0.7c4,0,6.4-2.6,6.4-6.9v-3C117.6,10.7,115.2,8.1,111.2,8.1z M111.2,11.6
	c1.9,0,2.8,1,2.8,3v3.8c0,2-1,3-2.8,3c-1.9,0-3-1-3-3v-3.5C108.2,12.9,109.8,11.6,111.2,11.6z"/>
<path class="st0" d="M126.8,21.2h-1V5.4c0-0.9-0.8-1.7-1.7-1.7h-2.8c-1,0-1.7,0.8-1.7,1.7c0,1,0.8,1.8,1.7,1.8h1v14.1h-1.1
	c-1,0-1.7,0.8-1.7,1.7c0,1,0.8,1.7,1.7,1.7h5.6c1,0,1.7-0.8,1.7-1.7C128.5,22,127.8,21.2,126.8,21.2z"/>
<path class="st0" d="M141.9,9.1c-0.2-0.4-0.6-0.8-1.1-0.9c-0.9-0.2-1.8,0.3-2.1,1.2l-3.1,8.5l-3.2-8.5c-0.3-0.7-0.9-1.2-1.7-1.2
	c-0.2,0-0.3,0-0.5,0.1c-0.5,0.1-0.8,0.5-1,0.9c-0.2,0.4-0.2,0.9-0.1,1.3l4.6,12.5l-1.1,3.1H132c-1,0-1.7,0.8-1.7,1.7
	c0,1,0.8,1.7,1.7,1.7h1.2c0,0,0,0,0,0c0.5,0,1.7,0,2.2-1.4l6.4-17.7C142.1,10,142.1,9.5,141.9,9.1z"/>
<path class="st1" d="M36.6,27c-3-0.9-5.2-3.2-7.2-5.8c-0.3,0.1-0.6,0.1-0.9,0.1c-1.7,0-3.1-1.4-3.1-3.1c0-0.6,0.2-1.2,0.5-1.7
	c-2.3-2.9-4.7-5.2-8.5-5.7c-0.2,1.5-1.5,2.6-3.1,2.6c-1.2,0-2.2-0.7-2.7-1.7c-2.6,1.4-4,4-5.5,6.7c-1.1,2-2.2,4-3.8,5.5
	c0,0.1,0,0.3,0,0.4c0,1.5-1,2.7-2.4,3v2.1C0,30.9,1.1,32,2.4,32h34.1c1.3,0,2.4-1.1,2.4-2.4C37.7,29.3,36.8,28.2,36.6,27z"/>
<path class="st2" d="M36.5,0H2.4C1.1,0,0,1.1,0,2.4v19c0.6,0.2,1.1,0.5,1.5,0.9c1.2-1.3,2.1-3,3.1-4.7c1.6-2.9,3.4-6.1,6.7-7.6
	c0.1-1.6,1.5-2.9,3.1-2.9c1.3,0,2.4,0.8,2.9,1.9c4.6,0.4,7.5,3.2,10,6.3c0.4-0.2,0.8-0.3,1.3-0.3c1.7,0,3.1,1.4,3.1,3.1
	c0,0.8-0.3,1.5-0.8,2.1c1.7,2.2,3.6,4.1,6,5c0.4-0.8,1.2-1.5,2.1-1.7V2.4C39,1.1,37.9,0,36.5,0z"/>
<path class="st3" d="M39,23.5c-0.9,0.2-1.7,0.9-2.1,1.7c-2.4-0.8-4.3-2.7-6-5c0.5-0.6,0.8-1.3,0.8-2.1c0-1.7-1.4-3.1-3.1-3.1
	c-0.5,0-0.9,0.1-1.3,0.3c-2.5-3.2-5.4-5.9-10-6.3c-0.5-1.1-1.6-1.9-2.9-1.9c-1.6,0-3,1.3-3.1,2.9c-3.3,1.6-5.1,4.7-6.7,7.6
	c-1,1.7-1.9,3.4-3.1,4.7c-0.4-0.4-0.9-0.8-1.5-0.9v6.1c1.4-0.3,2.4-1.6,2.4-3c0-0.2,0-0.3,0-0.4c1.6-1.6,2.7-3.6,3.8-5.5
	c1.5-2.7,3-5.3,5.5-6.7c0.5,1,1.6,1.7,2.7,1.7c1.5,0,2.8-1.1,3.1-2.6c3.8,0.5,6.3,2.8,8.5,5.7c-0.3,0.5-0.5,1.1-0.5,1.7
	c0,1.7,1.4,3.1,3.1,3.1c0.3,0,0.6-0.1,0.9-0.1c2,2.5,4.1,4.8,7.2,5.8c0.2,1.3,1.1,2.3,2.4,2.6V23.5z"/>
</svg>
